<?xml version="1.0" encoding="UTF-8"?>
<svg viewBox="0 0 181.5 217.5" xmlns="http://www.w3.org/2000/svg">
 <g fill-rule="evenodd" stroke="#000" stroke-width="2">
  <path d="m129.5 59h-0.5l-5.5-0.75q-5.5-0.75-10.5 2.25t-6 5.75-2 2.75h-1v1l-7-1.75q-7-1.75-16.25-8t-9.5-6.5l-0.25-0.25-2.5 1.5q-2.5 1.5-5.75 6.75t-5.25 11.75-3.5 33-2 30 2 12 3.25 9l0.75 0.5 0.5 1.25 0.5 1.25-0.5 0.25-0.5 0.25-15.5-4.25q-15.5-4.25-18-7l-2.5-2.75 2-1.75q2-1.75 10.25-16t10.75-29.75 3.5-20.5 5.5-11.5 2.25-7.75-3.25-0.25l-1 1-3.25 5.75q-3.25 5.75-5.75 17.75t-4.5 18-4.5 14-4.75 14l-2.25 6-3 2.25q-3 2.25-8.5 4l-5.5 1.75-0.25-4q-0.25-4 5.75-18t8.5-25.5 6-19 7.5-16 6.75-13.25 9.75-12.25 10.25-10.75 14-10l10.75-6.75h9q9 0 14 2t10.75 9.25 7.25 20.25 0.75 16l-0.75 3h-0.5zm-34-16.5q2.5-1 4.75 0.75l2.25 1.75-0.25 3.5q-0.25 3.5-5 3t-4.5-4.25l0.25-3.75 2.5-1z"/>
  <path d="m97.5 46.5q2.5 0 3 1.75t-3 1.25l-3.5-0.5 0.5-1.25q0.5-1.25 3-1.25z"/>
  <g fill="#f3fbfb">
   <path d="m24 145.25l-2 1.75-3.5-0.25-3.5-0.25-2.5-0.25q-2.5-0.25-2.5-1.25v-1l5.5-1.75q5.5-1.75 8.5-4l3-2.25 2.25-6q2.25-6 4.75-14t4.5-14 4.5-18 5.75-17.75l3.25-5.75 1-1q1-1 3.25 0.25t-2.25 7.75-5.5 11.5-3.5 20.5-10.75 29.75-10.25 16z"/>
   <path d="m97 68.25l7 1.75 4 1 4 1 0.5 1.5 0.5 1.5h-1q-1 0-1.25 10.5t2.75 29.5 3.25 21.5 0.25 3.5v1l-0.75 0.5q-0.75 0.5-6 3.25t-8.25 4.75l-3 2-10 0.75q-10 0.75-10 1.75t-10.5 2.5l-10.5 1.5-0.75-0.5q-0.75-0.5-3.25-9t-2-12 2-30 3.5-33 5.25-11.75 5.75-6.75l2.5-1.5 0.25 0.25q0.25 0.25 9.5 6.5t16.25 8z"/>
   <path d="m95.5 42.5q2.5-1 4.75 0.75l2.25 1.75-0.25 3.5q-0.25 3.5-5 3t-4.5-4.25l0.25-3.75 2.5-1zm2 4q2.5 0 3 1.75t-3 1.25l-3.5-0.5 0.5-1.25q0.5-1.25 3-1.25z"/>
  </g>
  <g fill="#ffb516">
   <path d="m116.25 141.5l0.75-0.5 3.5 2.25q3.5 2.25 4.75 5.5l1.25 3.25-0.5 1.5q-0.5 1.5-4.25 3.25t-12.25 4.75-25 4.5-19 0.5-5-3.25l-2.5-2.25 0.5-0.25 0.5-0.25-0.5-1.25-0.5-1.25 10.5-1.5q10.5-1.5 10.5-2.5t10-1.75l10-0.75 3-2q3-2 8.25-4.75t6-3.25z"/>
   <path d="m123.5 58.25l5.5 0.75-0.75 9.5q-0.75 9.5-2.5 11.75l-1.75 2.25h-2q-2 0-4.25-2.25t-3.5-3.75l-1.25-1.5-0.5-1.5-0.5-1.5-4-1-4-1v-1h1q1 0 2-2.75t6-5.75 10.5-2.25z"/>
  </g>
 </g>
</svg>
