<?xml version="1.0" encoding="iso-8859-1"?>
<!-- Generator: Adobe Illustrator 19.0.0, SVG Export Plug-In . SVG Version: 6.00 Build 0)  -->
<svg version="1.1" id="Layer_1" xmlns="http://www.w3.org/2000/svg" xmlns:xlink="http://www.w3.org/1999/xlink" x="0px" y="0px"
	 viewBox="0 0 512 512" style="enable-background:new 0 0 512 512;" xml:space="preserve">
<circle style="fill:#40596B;" cx="214.4" cy="214.4" r="214.4"/>
<g>
	<path style="fill:#334A5E;" d="M214.4,392.533c-98.133,0-177.067-80-177.067-177.067c0-3.2-2.133-5.333-5.333-5.333
		s-5.333,2.133-5.333,5.333c0,104.533,85.333,188.8,188.8,188.8c3.2,0,5.333-2.133,5.333-5.333
		C220.8,394.667,217.6,392.533,214.4,392.533z"/>
	<path style="fill:#334A5E;" d="M214.4,25.6c-3.2,0-5.333,2.133-5.333,5.333s2.133,5.333,5.333,5.333
		c98.133,0,177.067,80,177.067,177.067c0,3.2,2.133,5.333,5.333,5.333s5.333-2.133,5.333-5.333
		C404.267,109.867,318.933,25.6,214.4,25.6z"/>
	<path style="fill:#334A5E;" d="M214.4,343.467c-70.4,0-129.067-57.6-129.067-129.067c0-3.2-2.133-5.333-5.333-5.333
		c-3.2,0-5.333,2.133-5.333,5.333c0,77.867,62.933,140.8,140.8,140.8c3.2,0,5.333-2.133,5.333-5.333
		C220.8,346.667,217.6,343.467,214.4,343.467z"/>
	<path style="fill:#334A5E;" d="M214.4,73.6c-3.2,0-5.333,2.133-5.333,5.333s2.133,6.4,5.333,6.4
		c71.467,0,129.067,57.6,129.067,129.067c0,3.2,2.133,5.333,5.333,5.333s5.333-2.133,5.333-5.333
		C355.2,136.533,292.267,73.6,214.4,73.6z"/>
</g>
<circle style="fill:#CDD6E0;" cx="214.4" cy="214.4" r="87.467"/>
<circle style="fill:#FFFFFF;" cx="214.4" cy="214.4" r="29.867"/>
<path style="fill:#FFD15C;" d="M487.467,266.667c-11.733,1.067-21.333,11.733-21.333,23.467v48c0,2.133-1.067,3.2-3.2,3.2l0,0
	c-2.133,0-3.2-1.067-3.2-3.2V243.2c0-11.733-9.6-22.4-21.333-23.467c-12.8-1.067-24.533,9.6-24.533,22.4v94.933
	c0,2.133-1.067,3.2-3.2,3.2l0,0c-2.133,0-3.2-1.067-3.2-3.2V217.6c0-12.8-10.667-22.4-22.4-22.4s-22.4,10.667-22.4,22.4v119.467
	c0,2.133-1.067,3.2-3.2,3.2l0,0c-2.133,0-3.2-1.067-3.2-3.2v-83.2c0-12.8-10.667-22.4-22.4-22.4c-12.8,0-22.4,10.667-22.4,22.4v160
	v8.533c0,0-42.667-39.467-66.133-25.6c0,0-24.533,17.067-7.467,33.067L309.333,512H512V289.067
	C512,276.267,501.333,265.6,487.467,266.667z"/>
<g>
</g>
<g>
</g>
<g>
</g>
<g>
</g>
<g>
</g>
<g>
</g>
<g>
</g>
<g>
</g>
<g>
</g>
<g>
</g>
<g>
</g>
<g>
</g>
<g>
</g>
<g>
</g>
<g>
</g>
</svg>
